<svg width="64" height="64" viewBox="0 0 64 64" xmlns="http://www.w3.org/2000/svg">
  <!-- Fundo do bloco -->
  <rect x="2" y="2" width="60" height="60" fill="#666666" stroke="#333333" stroke-width="2"/>
  
  <!-- Textura de pedra - linhas diagonais -->
  <g stroke="#555555" stroke-width="1" opacity="0.6">
    <line x1="8" y1="8" x2="16" y2="16"/>
    <line x1="16" y1="8" x2="24" y2="16"/>
    <line x1="24" y1="8" x2="32" y2="16"/>
    <line x1="32" y1="8" x2="40" y2="16"/>
    <line x1="40" y1="8" x2="48" y2="16"/>
    <line x1="48" y1="8" x2="56" y2="16"/>
    
    <line x1="8" y1="16" x2="16" y2="24"/>
    <line x1="16" y1="16" x2="24" y2="24"/>
    <line x1="24" y1="16" x2="32" y2="24"/>
    <line x1="32" y1="16" x2="40" y2="24"/>
    <line x1="40" y1="16" x2="48" y2="24"/>
    <line x1="48" y1="16" x2="56" y2="24"/>
    
    <line x1="8" y1="24" x2="16" y2="32"/>
    <line x1="16" y1="24" x2="24" y2="32"/>
    <line x1="24" y1="24" x2="32" y2="32"/>
    <line x1="32" y1="24" x2="40" y2="32"/>
    <line x1="40" y1="24" x2="48" y2="32"/>
    <line x1="48" y1="24" x2="56" y2="32"/>
    
    <line x1="8" y1="32" x2="16" y2="40"/>
    <line x1="16" y1="32" x2="24" y2="40"/>
    <line x1="24" y1="32" x2="32" y2="40"/>
    <line x1="32" y1="32" x2="40" y2="40"/>
    <line x1="40" y1="32" x2="48" y2="40"/>
    <line x1="48" y1="32" x2="56" y2="40"/>
    
    <line x1="8" y1="40" x2="16" y2="48"/>
    <line x1="16" y1="40" x2="24" y2="48"/>
    <line x1="24" y1="40" x2="32" y2="48"/>
    <line x1="32" y1="40" x2="40" y2="48"/>
    <line x1="40" y1="40" x2="48" y2="48"/>
    <line x1="48" y1="40" x2="56" y2="48"/>
    
    <line x1="8" y1="48" x2="16" y2="56"/>
    <line x1="16" y1="48" x2="24" y2="56"/>
    <line x1="24" y1="48" x2="32" y2="56"/>
    <line x1="32" y1="48" x2="40" y2="56"/>
    <line x1="40" y1="48" x2="48" y2="56"/>
    <line x1="48" y1="48" x2="56" y2="56"/>
  </g>
  
  <!-- Pontos de destaque para dar mais textura -->
  <g fill="#777777">
    <circle cx="15" cy="15" r="1"/>
    <circle cx="25" cy="20" r="1"/>
    <circle cx="35" cy="12" r="1"/>
    <circle cx="45" cy="25" r="1"/>
    <circle cx="20" cy="35" r="1"/>
    <circle cx="40" cy="40" r="1"/>
    <circle cx="50" cy="50" r="1"/>
    <circle cx="12" cy="45" r="1"/>
  </g>
  
  <!-- Sombra interna para dar profundidade -->
  <rect x="2" y="2" width="60" height="60" fill="none" stroke="#444444" stroke-width="1" opacity="0.8"/>
  
  <!-- Brilho no canto superior esquerdo -->
  <rect x="4" y="4" width="20" height="20" fill="#888888" opacity="0.3"/>
</svg>